<svg width="28" height="27" viewBox="0 0 28 27" fill="none" xmlns="http://www.w3.org/2000/svg">
<path d="M11.6563 26.1875C11.2656 26.1681 10.9384 26.0266 10.6747 25.7628C10.4109 25.4991 10.2791 25.1719 10.2791 24.7812C10.2791 24.3906 10.4109 24.0634 10.6747 23.7997C10.9384 23.5359 11.2656 23.4041 11.6563 23.4041C12.0469 23.4041 12.3741 23.5359 12.6378 23.7997C12.9016 24.0634 13.0334 24.3906 13.0334 24.7812C13.0334 25.1719 12.9016 25.4991 12.6378 25.7628C12.3741 26.0266 12.0469 26.1681 11.6563 26.1875ZM21.0313 26.1875C20.6406 26.1681 20.3134 26.0266 20.0497 25.7628C19.7859 25.4991 19.6541 25.1719 19.6541 24.7812C19.6541 24.3906 19.7859 24.0634 20.0497 23.7997C20.3134 23.5359 20.6406 23.4041 21.0313 23.4041C21.4219 23.4041 21.7491 23.5359 22.0128 23.7997C22.2766 24.0634 22.4084 24.3906 22.4084 24.7812C22.4084 25.1719 22.2766 25.4991 22.0128 25.7628C21.7491 26.0266 21.4219 26.1681 21.0313 26.1875ZM1.8125 2.75C1.53875 2.75 1.31406 2.66219 1.13844 2.48656C0.962812 2.31094 0.875 2.08625 0.875 1.8125C0.875 1.53875 0.962812 1.31406 1.13844 1.13844C1.31406 0.962812 1.53875 0.875 1.8125 0.875H6.5C6.73438 0.875 6.93469 0.943438 7.10094 1.08031C7.26719 1.21719 7.36969 1.40281 7.40844 1.63719L8.405 6.50094H26.1884C26.4816 6.50094 26.7209 6.61813 26.9066 6.8525C27.0922 7.08688 27.1556 7.35063 27.0969 7.64375L24.2844 20.7687C24.245 20.9837 24.1425 21.1597 23.9769 21.2966C23.8113 21.4334 23.6109 21.5019 23.3759 21.5019H10.2509C10.0166 21.5019 9.81625 21.4334 9.65 21.2966C9.48375 21.1597 9.38125 20.9741 9.3425 20.7397L5.73875 2.75094L1.8125 2.75Z" fill="black"/>
</svg>
