<svg width="30" height="30" viewBox="0 0 30 30" fill="none" xmlns="http://www.w3.org/2000/svg">
<path d="M12.6563 27.1875C12.2656 27.1681 11.9384 27.0266 11.6747 26.7628C11.4109 26.4991 11.2791 26.1719 11.2791 25.7812C11.2791 25.3906 11.4109 25.0634 11.6747 24.7997C11.9384 24.5359 12.2656 24.4041 12.6563 24.4041C13.0469 24.4041 13.3741 24.5359 13.6378 24.7997C13.9016 25.0634 14.0334 25.3906 14.0334 25.7812C14.0334 26.1719 13.9016 26.4991 13.6378 26.7628C13.3741 27.0266 13.0469 27.1681 12.6563 27.1875ZM22.0313 27.1875C21.6406 27.1681 21.3134 27.0266 21.0497 26.7628C20.7859 26.4991 20.6541 26.1719 20.6541 25.7812C20.6541 25.3906 20.7859 25.0634 21.0497 24.7997C21.3134 24.5359 21.6406 24.4041 22.0313 24.4041C22.4219 24.4041 22.7491 24.5359 23.0128 24.7997C23.2766 25.0634 23.4084 25.3906 23.4084 25.7812C23.4084 26.1719 23.2766 26.4991 23.0128 26.7628C22.7491 27.0266 22.4219 27.1681 22.0313 27.1875ZM2.8125 3.75C2.53875 3.75 2.31406 3.66219 2.13844 3.48656C1.96281 3.31094 1.875 3.08625 1.875 2.8125C1.875 2.53875 1.96281 2.31406 2.13844 2.13844C2.31406 1.96281 2.53875 1.875 2.8125 1.875H7.5C7.73438 1.875 7.93469 1.94344 8.10094 2.08031C8.26719 2.21719 8.36969 2.40281 8.40844 2.63719L9.405 7.50094H27.1884C27.4816 7.50094 27.7209 7.61813 27.9066 7.8525C28.0922 8.08688 28.1556 8.35063 28.0969 8.64375L25.2844 21.7687C25.245 21.9837 25.1425 22.1597 24.9769 22.2966C24.8113 22.4334 24.6109 22.5019 24.3759 22.5019H11.2509C11.0166 22.5019 10.8162 22.4334 10.65 22.2966C10.4838 22.1597 10.3813 21.9741 10.3425 21.7397L6.73875 3.75094H2.8125V3.75ZM12.0122 20.625H23.6138L26.0166 9.375H9.75656L12.0122 20.625Z" fill="black"/>
</svg>
