<svg width="24" height="27" viewBox="0 0 24 27" fill="none" xmlns="http://www.w3.org/2000/svg">
<path d="M2.625 10.1294V24.251H21.375V10.1294L12 2.30689L2.625 10.1294ZM1.10156 8.95752L11.4141 0.37377C11.5897 0.236895 11.785 0.168457 12 0.168457C12.215 0.168457 12.4103 0.236895 12.5859 0.37377L22.8984 8.95752C23.1328 9.15314 23.25 9.39721 23.25 9.68971V25.1875C23.25 25.4613 23.1622 25.686 22.9866 25.8616C22.8109 26.0372 22.5863 26.125 22.3125 26.125H1.6875C1.41375 26.125 1.18906 26.0372 1.01344 25.8616C0.837813 25.686 0.75 25.4613 0.75 25.1875V9.68971C0.75 9.39658 0.867188 9.15252 1.10156 8.95752Z" fill="black"/>
</svg>
