<svg width="28" height="28" viewBox="0 0 28 28" fill="none" xmlns="http://www.w3.org/2000/svg">
<path d="M8.28688 2.75L2.75 9.07812V25.25H25.25V9.07812L19.7131 2.75H8.28688ZM7.87719 0.875H20.1237C20.4169 0.875 20.6609 0.9825 20.8559 1.1975L26.8916 8.11156C27.0478 8.28719 27.1259 8.49219 27.1259 8.72656V26.1875C27.1259 26.4612 27.0381 26.6859 26.8625 26.8616C26.6869 27.0372 26.4622 27.125 26.1884 27.125H1.81344C1.53969 27.125 1.315 27.0372 1.13938 26.8616C0.96375 26.6859 0.875937 26.4612 0.875937 26.1875V8.72656C0.875937 8.49219 0.954062 8.28719 1.11031 8.11156L7.14594 1.1975C7.34156 0.9825 7.58563 0.875 7.87813 0.875H7.87719ZM0.875 8.375H27.125V10.25H0.875V8.375ZM12.125 8.60938V17.75H15.875V8.60938L14.4097 2.75H13.5894L12.125 8.60938ZM12.125 0.875H15.875L17.75 8.375V18.6875C17.75 18.9612 17.6622 19.1859 17.4866 19.3616C17.3109 19.5372 17.0862 19.625 16.8125 19.625H11.1875C10.9138 19.625 10.6891 19.5372 10.5134 19.3616C10.3378 19.1859 10.25 18.9612 10.25 18.6875V8.375L12.125 0.875Z" fill="black"/>
</svg>
