<svg width="30" height="30" viewBox="0 0 30 30" fill="none" xmlns="http://www.w3.org/2000/svg">
<path fill-rule="evenodd" clip-rule="evenodd" d="M1.94327 9.375H1.875V11.25H1.87594V27.1875C1.87594 27.4613 1.96375 27.6859 2.13938 27.8616C2.315 28.0372 2.53969 28.125 2.81344 28.125H27.1884C27.4622 28.125 27.6869 28.0372 27.8625 27.8616C28.0381 27.6859 28.1259 27.4613 28.1259 27.1875V9.72656C28.1259 9.71175 28.1256 9.69705 28.125 9.68247V9.375H28.0586C28.0197 9.28086 27.9641 9.19305 27.8916 9.11156L21.8559 2.1975C21.6609 1.9825 21.4169 1.875 21.1237 1.875H16.875H13.125H8.87719C8.58469 1.875 8.34156 1.9825 8.14594 2.1975L2.11031 9.11156C2.03781 9.19305 1.98213 9.28086 1.94327 9.375ZM15.4097 3.75H14.5894L13.1836 9.375H16.8164L15.4097 3.75ZM16.875 11.25H13.125V18.75H16.875V11.25Z" fill="black"/>
</svg>
