<svg width="30" height="30" viewBox="0 0 30 30" fill="none" xmlns="http://www.w3.org/2000/svg">
<path fill-rule="evenodd" clip-rule="evenodd" d="M24.9416 5.75L18.4372 2L17.1772 4.1975C15.8103 3.94375 14.4431 3.94375 13.0756 4.1975L11.8156 2L5.31125 5.75L6.57125 7.9475C5.6725 9.00187 4.98875 10.1834 4.52 11.4922H2V18.9922H4.52C4.75437 19.6366 5.0425 20.2566 5.38437 20.8522C5.72625 21.4478 6.12187 22.0094 6.57125 22.5369L5.31125 24.7344L11.8156 28.4844L13.0756 26.2869C14.4425 26.5406 15.8097 26.5406 17.1772 26.2869L18.4372 28.4844L24.9416 24.7344L23.6816 22.5369C24.5803 21.4825 25.2641 20.3009 25.7328 18.9922H28.2528V11.4922H25.7328C25.4978 10.8472 25.2047 10.2222 24.8534 9.61719C24.5022 9.01219 24.1116 8.45562 23.6816 7.9475L24.9416 5.75ZM15 20C17.7614 20 20 17.7614 20 15C20 12.2386 17.7614 10 15 10C12.2386 10 10 12.2386 10 15C10 17.7614 12.2386 20 15 20Z" fill="black"/>
</svg>
