<svg width="30" height="30" viewBox="0 0 30 30" fill="none" xmlns="http://www.w3.org/2000/svg">
<path d="M18.3102 1.875L24.8146 5.625L23.5546 7.8225C23.9846 8.33063 24.3752 8.88719 24.7265 9.49219C25.0777 10.0972 25.3709 10.7222 25.6059 11.3672H28.1259V18.8672H25.6059C25.1371 20.1759 24.4534 21.3575 23.5546 22.4119L24.8146 24.6094L18.3102 28.3594L17.0502 26.1619C15.6827 26.4156 14.3155 26.4156 12.9487 26.1619L11.6887 28.3594L5.1843 24.6094L6.4443 22.4119C5.99492 21.8844 5.5993 21.3228 5.25742 20.7272C4.91555 20.1316 4.62742 19.5116 4.39305 18.8672H1.87305V11.3672H4.39305C4.8618 10.0584 5.54555 8.87687 6.4443 7.8225L5.1843 5.625L11.6887 1.875L12.9487 4.0725C14.3162 3.81875 15.6834 3.81875 17.0502 4.0725L18.3102 1.875ZM19.0134 4.42406L18.6618 5.01L18.0168 6.15281L16.6987 5.91844C15.5655 5.70344 14.4327 5.70344 13.3002 5.91844L11.9821 6.15281L10.9855 4.42406L7.76242 6.29906L8.72898 8.02781L7.87961 9.02438C7.13711 9.90313 6.57055 10.8894 6.17992 11.9831L5.74023 13.2431H3.74805V16.9931H5.71117L6.17992 18.2531C6.37555 18.8194 6.60992 19.3369 6.88305 19.8056C7.15617 20.2744 7.48836 20.7431 7.87961 21.2119L8.72898 22.2084L7.76242 23.9372L10.9855 25.8122L11.9821 24.0834L13.3002 24.3178C14.4334 24.5328 15.5662 24.5328 16.6987 24.3178L18.0168 24.0834L19.0134 25.8122L22.2365 23.9372L21.2699 22.2084L22.1193 21.2119C22.8618 20.3131 23.4284 19.3269 23.819 18.2531L24.2587 16.9931H26.2509V13.2431H24.2877L23.819 11.9831C23.6434 11.4556 23.409 10.9428 23.1159 10.4447C22.8227 9.94656 22.4905 9.47281 22.1193 9.02344L21.2699 8.02688L22.2365 6.29812L19.0134 4.42406ZM14.9999 8.55469C16.8555 8.59406 18.4034 9.23375 19.6434 10.4738C20.8834 11.7137 21.523 13.2616 21.5624 15.1172C21.523 16.9728 20.8834 18.5206 19.6434 19.7606C18.4034 21.0006 16.8555 21.6403 14.9999 21.6797C13.1443 21.6403 11.5965 21.0006 10.3565 19.7606C9.11648 18.5206 8.4768 16.9728 8.43742 15.1172C8.4768 13.2616 9.11648 11.7137 10.3565 10.4738C11.5965 9.23375 13.1443 8.59406 14.9999 8.55469ZM14.9999 10.4297C13.6718 10.4691 12.5684 10.9281 11.6896 11.8069C10.8109 12.6856 10.3518 13.7891 10.3124 15.1172C10.3518 16.4453 10.8109 17.5487 11.6896 18.4275C12.5684 19.3062 13.6718 19.7653 14.9999 19.8047C16.328 19.7653 17.4315 19.3062 18.3102 18.4275C19.189 17.5487 19.648 16.4453 19.6874 15.1172C19.648 13.7891 19.189 12.6856 18.3102 11.8069C17.4315 10.9281 16.328 10.4691 14.9999 10.4297Z" fill="black"/>
</svg>
