<svg width="17" height="16" viewBox="0 0 17 16" fill="none" xmlns="http://www.w3.org/2000/svg">
<path d="M3.46875 4H2.46875C2.32275 4 2.20292 3.95317 2.10925 3.8595C2.01558 3.76583 1.96875 3.646 1.96875 3.5C1.96875 3.354 2.01558 3.23417 2.10925 3.1405C2.20292 3.04683 2.32275 3 2.46875 3H6.46875V1.5C6.46875 1.354 6.51558 1.23417 6.60925 1.1405C6.70292 1.04683 6.82275 1 6.96875 1H10.9688C11.1147 1 11.2346 1.04683 11.3282 1.1405C11.4219 1.23417 11.4688 1.354 11.4688 1.5V3H15.4688C15.6147 3 15.7346 3.04683 15.8282 3.1405C15.9219 3.23417 15.9688 3.354 15.9688 3.5C15.9688 3.646 15.9219 3.76583 15.8282 3.8595C15.7346 3.95317 15.6147 4 15.4688 4H14.4688V14.5C14.4688 14.646 14.4219 14.7658 14.3282 14.8595C14.2346 14.9532 14.1147 15 13.9688 15H3.96875C3.82275 15 3.70292 14.9532 3.60925 14.8595C3.51558 14.7658 3.46875 14.646 3.46875 14.5V4ZM10.4688 3V2H7.46875V3H10.4688ZM4.46875 14H13.4688V4H4.46875V14ZM7.46875 12C7.32275 12 7.20292 11.9532 7.10925 11.8595C7.01558 11.7658 6.96875 11.646 6.96875 11.5V6.5C6.96875 6.354 7.01558 6.23417 7.10925 6.1405C7.20292 6.04683 7.32275 6 7.46875 6C7.61475 6 7.73458 6.04683 7.82825 6.1405C7.92192 6.23417 7.96875 6.354 7.96875 6.5V11.5C7.96875 11.646 7.92192 11.7658 7.82825 11.8595C7.73458 11.9532 7.61475 12 7.46875 12ZM10.4688 12C10.3228 12 10.2029 11.9532 10.1093 11.8595C10.0156 11.7658 9.96875 11.646 9.96875 11.5V6.5C9.96875 6.354 10.0156 6.23417 10.1093 6.1405C10.2029 6.04683 10.3228 6 10.4688 6C10.6147 6 10.7346 6.04683 10.8282 6.1405C10.9219 6.23417 10.9688 6.354 10.9688 6.5V11.5C10.9688 11.646 10.9219 11.7658 10.8282 11.8595C10.7346 11.9532 10.6147 12 10.4688 12Z" fill="#08080A" fill-opacity="0.96"/>
</svg>
