<svg width="24" height="24" viewBox="0 0 24 24" fill="none" xmlns="http://www.w3.org/2000/svg">
<path d="M14.2734 3.49202L6.51544 11.484C6.37494 11.6245 6.30469 11.7925 6.30469 11.988C6.30469 12.1835 6.37494 12.3593 6.51544 12.5153L14.2734 20.5073C14.4139 20.6323 14.5779 20.6948 14.7654 20.6948C14.9529 20.6948 15.1169 20.6245 15.2574 20.484C15.3979 20.3435 15.4682 20.1795 15.4682 19.992C15.4682 19.8045 15.3979 19.6405 15.2574 19.5L7.94494 12L15.2574 4.50002C15.3979 4.35952 15.4682 4.19552 15.4682 4.00802C15.4682 3.82052 15.3979 3.65652 15.2574 3.51602C15.1169 3.37552 14.9529 3.30527 14.7654 3.30527C14.5779 3.30527 14.4139 3.36777 14.2734 3.49277V3.49202Z" fill="black" fill-opacity="0.96"/>
</svg>
