<svg width="212" height="48" viewBox="0 0 212 48" fill="none" xmlns="http://www.w3.org/2000/svg">
<path d="M23.882 6.44369C23.541 6.44369 23.2 6.44369 22.866 6.51328C21.9823 6.51328 21.1055 6.64549 20.2218 6.78467C19.4076 6.98647 18.5239 7.18827 17.7097 7.52924C10.8555 9.97171 6.58286 16.5546 6.3741 23.7428C6.5759 30.9311 10.7859 37.4444 17.7027 39.9564C18.5169 40.2974 19.4006 40.4296 20.2148 40.701C21.0985 40.7706 21.9753 40.9724 22.8591 40.9724C23.2 40.9724 23.541 41.042 23.875 41.042C28.8296 41.042 33.6449 38.7387 36.832 34.9393L41.7169 39.1423C37.3052 44.2986 30.6597 47.4161 23.875 47.4161C22.2467 47.4161 20.6184 47.2143 18.9901 46.9429C17.7723 46.6715 16.6172 46.4001 15.5316 45.9269C6.10271 42.6007 0.132214 33.645 0 23.7428C0.2018 12.0732 7.52923 3.38886 18.997 0.542782C20.6254 0.271395 22.2537 0.0695953 23.882 0.0695953C30.6667 0.0695953 37.3121 3.18706 41.7239 8.3434L36.8389 12.4838C33.6449 8.75396 28.8296 6.44369 23.882 6.44369Z" fill="black"/>
<path d="M65.7381 0L86.5653 47.4856H79.9198L65.7381 15.7404L51.8974 47.4856H45.1128L65.7381 0Z" fill="black"/>
<path d="M93.35 47.4856V0L125.095 31.613V0H131.539V47.2143L99.7241 15.1976V47.4856H93.35Z" fill="black"/>
<path d="M174.48 29.5115C172.379 37.9941 166.68 43.3522 158.677 46.4001C157.794 46.6019 156.91 46.8733 156.033 47.0125C155.149 47.1516 154.266 47.3534 153.389 47.4161C152.644 47.4161 151.761 47.4856 151.086 47.4856H138.33V0.132208L151.489 0.0626221C162.748 0.0626221 172.386 8.00241 174.689 18.8509C175.434 22.3859 175.364 25.9835 174.48 29.5115ZM168.447 20.1452C166.687 12.275 159.693 6.50631 151.489 6.50631H144.705V41.035L151.079 41.1046C151.754 41.1046 152.296 41.035 152.909 40.9724C153.521 40.9724 154.196 40.8402 154.808 40.7706C155.483 40.6384 156.096 40.4296 156.708 40.2974C157.321 40.026 157.996 39.8242 158.538 39.5528C163.423 37.3817 166.951 33.1787 168.308 27.9528C168.921 25.4407 168.99 22.7269 168.447 20.1452Z" fill="black"/>
<path d="M211.73 0.0695953L200.13 24.3552V47.4857H193.617V24.3552L182.017 0.0695953H189.142L196.873 16.3528L204.604 0.0695953H211.73Z" fill="black"/>
</svg>
