<svg width="30" height="30" viewBox="0 0 30 30" fill="none" xmlns="http://www.w3.org/2000/svg">
<path d="M11.3963 22.5C11.6113 21.9338 11.9578 21.4797 12.4359 21.1378C12.9141 20.7959 13.4559 20.625 14.0616 20.625C14.6672 20.625 15.2091 20.7959 15.6872 21.1378C16.1653 21.4797 16.5119 21.9338 16.7269 22.5H26.2481V24.375H16.7269C16.5119 24.9412 16.1653 25.3953 15.6872 25.7372C15.2091 26.0791 14.6672 26.25 14.0616 26.25C13.4559 26.25 12.9141 26.0791 12.4359 25.7372C11.9578 25.3953 11.6113 24.9412 11.3963 24.375H3.75V22.5H11.3963ZM17.0213 14.0625C17.2363 13.4963 17.5828 13.0422 18.0609 12.7003C18.5391 12.3584 19.0809 12.1875 19.6866 12.1875C20.2922 12.1875 20.8341 12.3584 21.3122 12.7003C21.7903 13.0422 22.1369 13.4963 22.3519 14.0625H26.2481V15.9375H22.3519C22.1369 16.5037 21.7903 16.9578 21.3122 17.2997C20.8341 17.6416 20.2922 17.8125 19.6866 17.8125C19.0809 17.8125 18.5391 17.6416 18.0609 17.2997C17.5828 16.9578 17.2363 16.5037 17.0213 15.9375H3.75V14.0625H17.0213ZM7.64625 5.625C7.86125 5.05875 8.20781 4.60469 8.68594 4.26281C9.16406 3.92094 9.70594 3.75 10.3116 3.75C10.9172 3.75 11.4591 3.92094 11.9372 4.26281C12.4153 4.60469 12.7619 5.05875 12.9769 5.625H26.2481V7.5H12.9769C12.7619 8.06625 12.4153 8.52031 11.9372 8.86219C11.4591 9.20406 10.9172 9.375 10.3116 9.375C9.70594 9.375 9.16406 9.20406 8.68594 8.86219C8.20781 8.52031 7.86125 8.06625 7.64625 7.5H3.75V5.625H7.64625Z" fill="black"/>
</svg>
