<svg width="338" height="75" viewBox="0 0 338 75" fill="none" xmlns="http://www.w3.org/2000/svg">
<rect x="0.5" y="0.5" width="337" height="74" stroke="black" stroke-dasharray="10 10"/>
<path d="M177.889 44.1017C178.758 43.4903 179.41 42.6178 179.75 41.6108C180.09 40.6038 180.1 39.5147 179.779 38.5015C179.458 37.4883 178.823 36.6037 177.965 35.9762C177.107 35.3487 176.072 35.0108 175.009 35.0117H173.749C173.448 33.8395 172.885 32.7509 172.103 31.8277C171.321 30.9046 170.339 30.1709 169.232 29.682C168.125 29.1931 166.922 28.9617 165.712 29.0052C164.503 29.0487 163.319 29.3659 162.251 29.9331C161.182 30.5002 160.255 31.3025 159.541 32.2795C158.827 33.2565 158.344 34.3827 158.128 35.5734C157.912 36.7641 157.97 37.9882 158.295 39.1537C158.621 40.3191 159.207 41.3954 160.009 42.3017" stroke="black" stroke-linecap="round" stroke-linejoin="round"/>
<path d="M169.009 47.0117L169.009 38.0117" stroke="black" stroke-linecap="round" stroke-linejoin="round"/>
<path d="M173.009 42.0117L169.009 38.0117L165.009 42.0117" stroke="black" stroke-linecap="round" stroke-linejoin="round"/>
</svg>
